<svg xmlns="http://www.w3.org/2000/svg" width="22" height="17" viewBox="0 0 22 17" fill="none">
    <path
        d="M11.0007 16.7908C8.93927 16.7908 6.87625 16.7908 4.81477 16.7908C3.98243 16.7908 3.18264 16.6528 2.44175 16.2233C0.88247 15.3207 0.0532302 13.9762 0.0299805 12.1913C-0.0010191 9.75976 -0.0180689 7.3282 0.0299805 4.90284C0.07183 2.97372 1.00027 1.52377 2.7657 0.72669C3.39893 0.459924 4.07965 0.324347 4.76672 0.328149C8.92584 0.294032 13.085 0.290931 17.2441 0.318845C19.2265 0.3297 20.7315 1.22293 21.5623 3.0497C21.8243 3.65996 21.9623 4.31625 21.9684 4.98038C22.0165 7.36387 21.9994 9.74891 21.9839 12.134C21.97 14.3438 20.575 16.1349 18.4438 16.6714C18.0191 16.7659 17.5845 16.8086 17.1495 16.7986C15.1035 16.8001 13.0591 16.7908 11.0007 16.7908ZM10.9883 14.9579C13.1878 14.9579 15.3872 14.9408 17.5866 14.9579C18.7212 14.9703 20.1317 13.8134 20.1518 12.4627C20.1813 10.698 20.1766 8.93322 20.1844 7.16847C20.1844 6.68154 20.1844 6.67999 19.6853 6.67999H6.66545C5.19917 6.67999 3.73289 6.68774 2.2666 6.67999C1.94421 6.67999 1.81091 6.76373 1.82796 7.10489C1.85276 7.59648 1.82796 8.08961 1.82796 8.58275C1.83726 9.89003 1.82796 11.1973 1.86361 12.503C1.90236 13.8367 3.26789 14.9656 4.38853 14.9594C6.5895 14.9485 8.78893 14.9579 10.9883 14.9579ZM11.0054 4.89974H19.7349C20.1813 4.89974 20.1999 4.87493 20.1441 4.43452C20.1332 4.35543 20.1146 4.27944 20.096 4.1988C19.7767 2.91169 18.7197 2.12856 17.2611 2.12701C13.0917 2.12701 8.92171 2.12701 4.75122 2.12701C4.59623 2.12701 4.45363 2.12701 4.30483 2.14407C3.7039 2.20305 3.13926 2.45896 2.69865 2.87202C2.25804 3.28509 1.96612 3.83219 1.86826 4.42831C1.80936 4.87648 1.82951 4.89354 2.2759 4.89354L11.0054 4.89974Z"
        fill="currentColor" />
    <path
        d="M5.05349 10.405C5.40383 10.418 5.73541 10.5667 5.97822 10.8197C6.22104 11.0727 6.3561 11.4102 6.35489 11.7609C6.35369 12.1117 6.21631 12.4482 5.97175 12.6996C5.7272 12.9509 5.39461 13.0973 5.04419 13.1079C4.86295 13.1134 4.68246 13.0823 4.51346 13.0166C4.34447 12.9508 4.19042 12.8517 4.0605 12.7252C3.93057 12.5987 3.82743 12.4472 3.75721 12.28C3.68698 12.1127 3.65112 11.933 3.65174 11.7516C3.65237 11.5702 3.68947 11.3908 3.76084 11.224C3.83221 11.0572 3.9364 10.9066 4.06719 10.7809C4.19798 10.6553 4.3527 10.5572 4.52215 10.4926C4.69159 10.428 4.87229 10.3982 5.05349 10.405Z"
        fill="currentColor" />
</svg>