<svg xmlns="http://www.w3.org/2000/svg" width="20" height="20" viewBox="0 0 20 20" fill="none">
    <path
        d="M9.30346 19.8972C7.17905 19.8972 5.05465 19.8858 2.93024 19.8972C1.66923 19.9085 0.169655 18.8861 0.146934 17.2161C0.0901316 14.2965 0.0787712 11.3768 0.146934 8.46855C0.181015 7.12802 0.942166 6.15102 2.12365 5.49211C2.68031 5.18538 3.28242 5.08314 3.90724 5.08314C4.19125 5.08314 4.28214 4.96953 4.27078 4.69688C4.22534 3.89029 4.2935 3.09506 4.70247 2.35663C5.48635 0.93657 6.69055 0.164059 8.30374 0.129978C10.8144 0.0845361 13.3364 0.0958966 15.8471 0.129978C17.6875 0.152699 19.2325 1.36827 19.7324 3.15186C19.8346 3.53811 19.8914 3.94709 19.8914 4.34471C19.9028 8.10502 19.9028 11.8653 19.9028 15.637C19.9028 17.5796 18.8008 19.1247 16.9604 19.704C16.5514 19.829 16.1084 19.8858 15.688 19.8858C13.5523 19.9085 11.4279 19.8972 9.30346 19.8972ZM5.65675 18.2499C5.79308 18.2613 5.91804 18.2726 6.05437 18.2726C9.2353 18.2726 12.4276 18.2726 15.6085 18.2726C17.2217 18.2726 18.2669 17.2388 18.2669 15.637C18.2669 14.4669 18.2669 13.3081 18.2669 12.138C18.2669 9.58187 18.2669 7.02577 18.2669 4.46967C18.2669 2.7656 17.2444 1.75452 15.5517 1.75452C13.2001 1.75452 10.8485 1.75452 8.49686 1.75452C6.91776 1.75452 5.84988 2.81104 5.84988 4.37879C5.84988 7.54835 5.8726 10.7293 5.83852 13.8988C5.83852 15.3416 6.03165 16.7844 5.65675 18.2499ZM4.27078 12.0357C4.27078 11.5132 4.27078 10.9792 4.27078 10.4566C4.27078 9.30922 4.27078 8.17318 4.27078 7.02577C4.27078 6.88945 4.30486 6.71904 4.07765 6.70768C3.66867 6.69632 3.28242 6.71904 2.90752 6.92353C2.10093 7.37795 1.7374 8.05957 1.74876 8.97977C1.76012 11.5927 1.74876 14.2169 1.76012 16.8298C1.76012 16.9775 1.77148 17.1139 1.78284 17.2615C1.851 17.8068 2.31678 18.2385 2.86208 18.2726C3.6914 18.3181 4.25942 17.7955 4.25942 16.9434C4.27078 15.3075 4.25942 13.6716 4.27078 12.0357Z"
        fill="currentColor" />
    <path
        d="M12.0755 16.6027C10.9053 16.6027 9.72386 16.6027 8.55373 16.6027C8.04251 16.6027 7.72442 16.4095 7.61081 16.0574C7.45177 15.5575 7.71306 15.1031 8.22428 15.0236C8.41741 14.9895 8.61053 14.9781 8.80366 14.9781C10.9849 14.9781 13.1774 14.9781 15.3586 14.9781C15.5518 14.9781 15.7449 14.9895 15.938 15.0236C16.3129 15.0917 16.5628 15.3985 16.5742 15.7847C16.5856 16.1596 16.3356 16.4891 15.9607 16.5686C15.7903 16.6027 15.6086 16.614 15.4382 16.614C14.3248 16.6027 13.2002 16.6027 12.0755 16.6027Z"
        fill="currentColor" />
    <path
        d="M12.0641 10.0022C10.8713 10.0022 9.67841 10.0022 8.4742 10.0022C7.89482 10.0022 7.51992 9.6273 7.56536 9.11608C7.58809 8.75255 7.84938 8.4799 8.20155 8.4231C8.4174 8.38902 8.63325 8.37766 8.8491 8.37766C11.0076 8.37766 13.1774 8.37766 15.3359 8.37766C15.5063 8.37766 15.6881 8.38901 15.8585 8.41174C16.2561 8.45718 16.5401 8.75255 16.5742 9.13881C16.6083 9.5137 16.3924 9.84315 16.0062 9.95676C15.8585 10.0022 15.6994 10.0136 15.5518 10.0136C14.393 10.0022 13.2229 10.0022 12.0641 10.0022Z"
        fill="currentColor" />
    <path
        d="M12.0414 13.2853C10.8372 13.2853 9.63296 13.2853 8.42876 13.2853C7.94026 13.2853 7.62216 13.0127 7.56536 12.581C7.51992 12.1606 7.76985 11.7971 8.19019 11.7176C8.37195 11.6835 8.55372 11.6835 8.74685 11.6835C10.9849 11.6835 13.2229 11.6835 15.4495 11.6835C15.5972 11.6835 15.7335 11.6835 15.8812 11.7062C16.3129 11.763 16.5969 12.1152 16.5856 12.5469C16.5742 12.9445 16.2447 13.2853 15.8244 13.2853C15.0633 13.2967 14.3021 13.2967 13.541 13.2967C13.0297 13.2853 12.5412 13.2853 12.0414 13.2853Z"
        fill="currentColor" />
    <path
        d="M10.8144 5.08318C10.8144 5.35583 10.8257 5.61712 10.8144 5.88977C10.7917 6.33283 10.5304 6.65092 10.0873 6.67364C9.4852 6.70772 8.87173 6.70772 8.26963 6.67364C7.82657 6.65092 7.56528 6.33283 7.56528 5.88977C7.55392 5.34447 7.55392 4.79917 7.56528 4.25387C7.57664 3.82217 7.81521 3.50408 8.24691 3.46999C8.87173 3.42455 9.50792 3.42455 10.1327 3.46999C10.5531 3.49272 10.803 3.82217 10.8257 4.28795C10.8257 4.54924 10.8144 4.81053 10.8144 5.08318Z"
        fill="currentColor" />
    <path
        d="M14.5293 6.67359C14.0749 6.67359 13.6205 6.70767 13.1774 6.66223C12.6662 6.60542 12.3708 6.07148 12.564 5.6057C12.6662 5.34441 12.8593 5.12857 13.1547 5.12857C14.0749 5.1172 15.0065 5.09448 15.9267 5.12857C16.3129 5.13993 16.5742 5.50346 16.5856 5.90108C16.5856 6.27597 16.3129 6.63951 15.9267 6.67359C15.4609 6.69631 14.9951 6.67359 14.5293 6.67359Z"
        fill="currentColor" />
</svg>