<svg xmlns="http://www.w3.org/2000/svg" width="20" height="20" viewBox="0 0 20 20" fill="none">
    <path
        d="M12.4999 14.1666C12.4999 14.3876 12.4121 14.5995 12.2558 14.7558C12.0995 14.9121 11.8876 14.9999 11.6666 14.9999H8.33324C8.11222 14.9999 7.90026 14.9121 7.74398 14.7558C7.5877 14.5995 7.4999 14.3876 7.4999 14.1666C7.4999 13.9455 7.5877 13.7336 7.74398 13.5773C7.90026 13.421 8.11222 13.3332 8.33324 13.3332H11.6666C11.8876 13.3332 12.0995 13.421 12.2558 13.5773C12.4121 13.7336 12.4999 13.9455 12.4999 14.1666ZM12.2557 6.0774C12.0995 5.92118 11.8875 5.83342 11.6666 5.83342C11.4456 5.83342 11.2337 5.92118 11.0774 6.0774L9.9999 7.1549L8.9224 6.0774C8.84553 5.99781 8.75358 5.93433 8.65191 5.89065C8.55024 5.84698 8.44089 5.82399 8.33024 5.82303C8.21959 5.82207 8.10986 5.84315 8.00744 5.88505C7.90503 5.92695 7.81199 5.98883 7.73374 6.06708C7.6555 6.14532 7.59362 6.23836 7.55172 6.34078C7.50982 6.44319 7.48873 6.55292 7.4897 6.66357C7.49066 6.77422 7.51365 6.88357 7.55732 6.98524C7.60099 7.08691 7.66448 7.17886 7.74407 7.25574L8.82157 8.33324L7.74407 9.41073C7.66448 9.48761 7.60099 9.57956 7.55732 9.68123C7.51365 9.7829 7.49066 9.89225 7.4897 10.0029C7.48873 10.1135 7.50982 10.2233 7.55172 10.3257C7.59362 10.4281 7.6555 10.5212 7.73374 10.5994C7.81199 10.6776 7.90503 10.7395 8.00744 10.7814C8.10986 10.8233 8.21959 10.8444 8.33024 10.8434C8.44089 10.8425 8.55024 10.8195 8.65191 10.7758C8.75358 10.7321 8.84553 10.6687 8.9224 10.5891L9.9999 9.51157L11.0774 10.5891C11.2346 10.7409 11.4451 10.8249 11.6636 10.823C11.8821 10.8211 12.0911 10.7334 12.2456 10.5789C12.4001 10.4244 12.4877 10.2154 12.4896 9.9969C12.4915 9.7784 12.4075 9.5679 12.2557 9.41073L11.1782 8.33324L12.2557 7.25574C12.412 7.09946 12.4997 6.88754 12.4997 6.66657C12.4997 6.4456 12.412 6.23368 12.2557 6.0774ZM18.3332 13.3332H14.9999C14.7789 13.3332 14.5669 13.421 14.4106 13.5773C14.2544 13.7336 14.1666 13.9455 14.1666 14.1666C14.1666 14.3876 14.2544 14.5995 14.4106 14.7558C14.5669 14.9121 14.7789 14.9999 14.9999 14.9999H18.3332C18.5543 14.9999 18.7662 14.9121 18.9225 14.7558C19.0788 14.5995 19.1666 14.3876 19.1666 14.1666C19.1666 13.9455 19.0788 13.7336 18.9225 13.5773C18.7662 13.421 18.5543 13.3332 18.3332 13.3332ZM17.8449 8.33324L18.9224 7.25574C19.002 7.17886 19.0655 7.08691 19.1092 6.98524C19.1528 6.88357 19.1758 6.77422 19.1768 6.66357C19.1777 6.55292 19.1567 6.44319 19.1148 6.34078C19.0729 6.23836 19.011 6.14532 18.9327 6.06708C18.8545 5.98883 18.7614 5.92695 18.659 5.88505C18.5566 5.84315 18.4469 5.82207 18.3362 5.82303C18.2256 5.82399 18.1162 5.84698 18.0146 5.89065C17.9129 5.93433 17.8209 5.99781 17.7441 6.0774L16.6666 7.1549L15.5891 6.0774C15.5122 5.99781 15.4202 5.93433 15.3186 5.89065C15.2169 5.84698 15.1076 5.82399 14.9969 5.82303C14.8863 5.82207 14.7765 5.84315 14.6741 5.88505C14.5717 5.92695 14.4787 5.98883 14.4004 6.06708C14.3222 6.14532 14.2603 6.23836 14.2184 6.34078C14.1765 6.44319 14.1554 6.55292 14.1564 6.66357C14.1573 6.77422 14.1803 6.88357 14.224 6.98524C14.2677 7.08691 14.3311 7.17886 14.4107 7.25574L15.4882 8.33324L14.4107 9.41073C14.3311 9.48761 14.2677 9.57956 14.224 9.68123C14.1803 9.7829 14.1573 9.89225 14.1564 10.0029C14.1554 10.1135 14.1765 10.2233 14.2184 10.3257C14.2603 10.4281 14.3222 10.5212 14.4004 10.5994C14.4787 10.6776 14.5717 10.7395 14.6741 10.7814C14.7765 10.8233 14.8863 10.8444 14.9969 10.8434C15.1076 10.8425 15.2169 10.8195 15.3186 10.7758C15.4202 10.7321 15.5122 10.6687 15.5891 10.5891L16.6666 9.51157L17.7441 10.5891C17.9012 10.7409 18.1117 10.8249 18.3302 10.823C18.5487 10.8211 18.7577 10.7334 18.9123 10.5789C19.0668 10.4244 19.1544 10.2154 19.1563 9.9969C19.1582 9.7784 19.0742 9.5679 18.9224 9.41073L17.8449 8.33324ZM4.9999 13.3332H1.66657C1.44556 13.3332 1.2336 13.421 1.07732 13.5773C0.921036 13.7336 0.833238 13.9455 0.833238 14.1666C0.833238 14.3876 0.921036 14.5995 1.07732 14.7558C1.2336 14.9121 1.44556 14.9999 1.66657 14.9999H4.9999C5.22092 14.9999 5.43288 14.9121 5.58916 14.7558C5.74544 14.5995 5.83324 14.3876 5.83324 14.1666C5.83324 13.9455 5.74544 13.7336 5.58916 13.5773C5.43288 13.421 5.22092 13.3332 4.9999 13.3332ZM5.58907 6.0774C5.4328 5.92118 5.22087 5.83342 4.9999 5.83342C4.77893 5.83342 4.56701 5.92118 4.41074 6.0774L3.33324 7.1549L2.25574 6.0774C2.17887 5.99781 2.08691 5.93433 1.98524 5.89065C1.88357 5.84698 1.77422 5.82399 1.66357 5.82303C1.55292 5.82207 1.44319 5.84315 1.34078 5.88505C1.23836 5.92695 1.14532 5.98883 1.06708 6.06708C0.988832 6.14532 0.926954 6.23836 0.885054 6.34078C0.843153 6.44319 0.822068 6.55292 0.82303 6.66357C0.823991 6.77422 0.846979 6.88357 0.890654 6.98524C0.934328 7.08691 0.997813 7.17886 1.0774 7.25574L2.1549 8.33324L1.0774 9.41073C0.997813 9.48761 0.934328 9.57956 0.890654 9.68123C0.846979 9.7829 0.823991 9.89225 0.82303 10.0029C0.822068 10.1135 0.843153 10.2233 0.885054 10.3257C0.926954 10.4281 0.988832 10.5212 1.06708 10.5994C1.14532 10.6776 1.23836 10.7395 1.34078 10.7814C1.44319 10.8233 1.55292 10.8444 1.66357 10.8434C1.77422 10.8425 1.88357 10.8195 1.98524 10.7758C2.08691 10.7321 2.17887 10.6687 2.25574 10.5891L3.33324 9.51157L4.41074 10.5891C4.48761 10.6687 4.57956 10.7321 4.68123 10.7758C4.7829 10.8195 4.89225 10.8425 5.0029 10.8434C5.11355 10.8444 5.22329 10.8233 5.3257 10.7814C5.42811 10.7395 5.52116 10.6776 5.5994 10.5994C5.67764 10.5212 5.73952 10.4281 5.78142 10.3257C5.82332 10.2233 5.84441 10.1135 5.84345 10.0029C5.84248 9.89225 5.8195 9.7829 5.77582 9.68123C5.73215 9.57956 5.66866 9.48761 5.58907 9.41073L4.51157 8.33324L5.58907 7.25574C5.7453 7.09946 5.83306 6.88754 5.83306 6.66657C5.83306 6.4456 5.7453 6.23368 5.58907 6.0774Z"
        fill="#423E3E" />
</svg>