<svg xmlns="http://www.w3.org/2000/svg" width="22" height="22" viewBox="0 0 22 22" fill="none">
    <path
        d="M15.503 4.7601C13.6927 4.7601 11.895 4.77331 10.0848 4.74689C9.80823 4.74689 9.69509 4.82614 9.61966 5.11671C9.25509 6.50355 8.38768 7.21678 7.00484 7.38848C6.22543 7.48093 5.48373 7.45452 4.74202 7.20357C3.77404 6.88658 3.19576 6.17335 2.95691 5.15634C2.88148 4.82614 2.7432 4.73368 2.44149 4.74689C1.96378 4.77331 1.48608 4.7601 1.00837 4.74689C0.455238 4.73368 0.0529591 4.33744 0.00267418 3.78271C-0.0350395 3.24118 0.329526 2.7657 0.88266 2.71287C1.43579 2.66003 1.98893 2.68645 2.52949 2.67324C2.71806 2.67324 2.86891 2.66003 2.9192 2.40908C3.24605 0.943001 4.20146 0.256189 5.55915 0.0580697C6.48942 -0.0740098 7.38198 0.00523761 8.23682 0.4411C8.94081 0.797714 9.38081 1.41849 9.58194 2.19776C9.68251 2.56758 9.83337 2.68645 10.1979 2.68645C13.655 2.67324 17.1121 2.67324 20.5692 2.67324C20.7452 2.67324 20.9212 2.67324 21.0972 2.69966C21.7006 2.77891 22.0275 3.20156 21.9772 3.83554C21.9395 4.36386 21.5372 4.74689 20.984 4.7601C19.1612 4.7601 17.3384 4.7601 15.503 4.7601ZM6.28828 2.07888C6.15 2.07888 6.01172 2.06568 5.87343 2.07888C5.18202 2.13172 4.86774 2.40908 4.79231 3.13552C4.74202 3.55817 4.7546 4.00725 4.80488 4.4299C4.88031 5.07709 5.2323 5.38087 5.87343 5.40729C6.03686 5.4205 6.20029 5.40729 6.36371 5.40729C7.44484 5.40729 7.8094 5.03746 7.84712 3.91479C7.84712 3.83554 7.84712 3.75629 7.84712 3.67705C7.82197 2.40908 7.48255 2.06568 6.28828 2.07888Z"
        fill="currentColor" />
    <path
        d="M6.46421 9.99047C8.24933 9.99047 10.047 9.97726 11.8321 10.0037C12.1715 10.0037 12.3098 9.89802 12.3978 9.5414C12.6995 8.26023 13.6927 7.40171 15.0881 7.32247C15.7795 7.28284 16.496 7.34888 17.1623 7.50738C18.1932 7.75833 18.7966 8.5376 19.0606 9.59423C19.136 9.91122 19.2869 10.0169 19.5886 10.0037C20.0788 9.97726 20.5691 9.99047 21.0594 10.0037C21.5497 10.0169 21.9394 10.3735 21.9897 10.849C22.0525 11.3905 21.8262 11.866 21.3234 11.9585C20.7954 12.0641 20.2548 12.0641 19.7143 12.0509C19.3246 12.0377 19.1486 12.1434 19.0354 12.566C18.696 13.8076 17.8663 14.468 16.6595 14.6661C15.7921 14.8114 14.9372 14.785 14.1075 14.4812C13.2275 14.1642 12.6618 13.5038 12.4355 12.566C12.335 12.183 12.1841 12.0509 11.7944 12.0509C8.31219 12.0641 4.82996 12.0641 1.34773 12.0641C1.13402 12.0641 0.920308 12.0509 0.719168 11.9849C0.228891 11.8264 -0.047676 11.3773 0.0151801 10.8754C0.0780362 10.3735 0.455172 10.0169 0.983164 10.0037C1.88829 9.99047 2.78085 10.0037 3.68598 10.0037C4.61625 9.99047 5.53394 9.99047 6.46421 9.99047ZM14.1829 10.9679C14.1704 12.2358 14.4847 12.6585 15.5155 12.6849C17.0115 12.7113 17.288 12.2358 17.2503 10.9018C17.2252 9.66027 16.9235 9.34328 15.7418 9.34328C14.4972 9.34328 14.1955 9.64706 14.1829 10.9679Z"
        fill="currentColor" />
    <path
        d="M15.5281 19.302C13.7179 19.302 11.9202 19.302 10.1099 19.302C9.84595 19.302 9.6951 19.3681 9.63224 19.6587C9.30539 21.0851 8.36255 21.7851 7.03 21.9436C6.07459 22.0625 5.13174 22.0229 4.25176 21.5342C3.57291 21.1512 3.15806 20.5304 2.98207 19.7643C2.89407 19.3945 2.74321 19.2756 2.39122 19.302C1.93866 19.3285 1.48609 19.3153 1.03353 19.302C0.417538 19.2888 0.0152588 18.8926 0.0152588 18.285C0.0152588 17.7303 0.430109 17.2944 1.00838 17.268C1.51123 17.2548 2.01408 17.2548 2.51693 17.268C2.74321 17.268 2.86893 17.2152 2.93178 16.9378C3.33406 15.2868 4.39004 14.7453 5.73516 14.5736C6.42658 14.4943 7.13057 14.534 7.80942 14.7849C8.75226 15.1283 9.3431 15.8019 9.59453 16.7925C9.68253 17.1359 9.82081 17.2548 10.1854 17.2548C13.743 17.2416 17.3007 17.2416 20.8583 17.2416C21.5749 17.2416 21.9772 17.6114 21.9897 18.2586C22.0023 18.8266 21.6126 19.2492 21.0595 19.2624C20.3681 19.2756 19.6766 19.2756 18.9978 19.2756C17.8287 19.302 16.6721 19.302 15.5281 19.302ZM6.18773 20.0021C6.18773 19.9889 6.18773 19.9756 6.18773 19.9624C6.32601 19.9624 6.46429 19.9756 6.60258 19.9624C7.39457 19.9096 7.72142 19.619 7.79684 18.8001C7.83456 18.3379 7.7717 17.8624 7.72142 17.4001C7.67113 17.0039 7.39457 16.7529 7.04257 16.7133C6.53972 16.6605 6.0243 16.6737 5.52145 16.7133C5.14432 16.7529 4.86775 17.0435 4.84261 17.4397C4.80489 17.9945 4.80489 18.5624 4.83004 19.1171C4.85518 19.5002 5.09403 19.7643 5.4586 19.87C5.68488 19.936 5.9363 19.9624 6.18773 20.0021Z"
        fill="currentColor" />
</svg>