<svg xmlns="http://www.w3.org/2000/svg" width="22" height="22" viewBox="0 0 22 22" fill="none">
    <g clip-path="url(#clip0_2_447)">
        <path
            d="M21.8495 8.06145C21.662 7.46461 21.2874 6.94395 20.7811 6.57648C20.2748 6.20901 19.6636 6.01423 19.0381 6.02095H15.0331L13.8167 2.22962C13.6254 1.63283 13.2496 1.11221 12.7433 0.742844C12.237 0.373474 11.6265 0.174438 10.9998 0.174438C10.3731 0.174438 9.76261 0.373474 9.25634 0.742844C8.75006 1.11221 8.37418 1.63283 8.18289 2.22962L6.96648 6.02095H2.96156C2.33799 6.02184 1.73065 6.21976 1.22629 6.58645C0.721931 6.95313 0.346348 7.46982 0.153189 8.06272C-0.0399708 8.65562 -0.0408258 9.2944 0.150746 9.88781C0.342317 10.4812 0.716516 10.9989 1.21989 11.367L4.47956 13.7503L3.24023 17.5884C3.03995 18.1836 3.03741 18.8277 3.23299 19.4245C3.42858 20.0214 3.81181 20.539 4.32556 20.9003C4.83051 21.2732 5.44242 21.4729 6.07012 21.4698C6.69782 21.4666 7.3077 21.2608 7.80889 20.8829L10.9998 18.5344L14.1916 20.8801C14.6957 21.2509 15.3043 21.4522 15.93 21.4553C16.5557 21.4583 17.1662 21.2629 17.6738 20.8971C18.1815 20.5313 18.56 20.0139 18.7551 19.4194C18.9501 18.8249 18.9516 18.1838 18.7594 17.5884L17.5201 13.7503L20.7834 11.367C21.2925 11.0035 21.6711 10.4858 21.8631 9.89052C22.0551 9.29519 22.0503 8.65385 21.8495 8.06145ZM19.7017 9.88653L15.9031 12.6631C15.747 12.7769 15.6309 12.9371 15.5714 13.1208C15.5118 13.3045 15.5117 13.5024 15.5712 13.6861L17.015 18.1503C17.088 18.3767 17.0874 18.6205 17.0132 18.8465C16.939 19.0726 16.795 19.2692 16.602 19.4083C16.4089 19.5473 16.1767 19.6216 15.9388 19.6204C15.7009 19.6192 15.4695 19.5426 15.2779 19.4015L11.5425 16.6515C11.3851 16.536 11.195 16.4736 10.9998 16.4736C10.8046 16.4736 10.6145 16.536 10.4571 16.6515L6.72173 19.4015C6.53022 19.5445 6.29817 19.6227 6.05922 19.6248C5.82027 19.627 5.58684 19.553 5.39277 19.4136C5.1987 19.2742 5.05408 19.0766 4.97987 18.8494C4.90567 18.6223 4.90573 18.3774 4.98006 18.1503L6.42839 13.6861C6.4879 13.5024 6.48786 13.3045 6.42827 13.1208C6.36868 12.9371 6.25259 12.7769 6.09656 12.6631L2.29789 9.88653C2.10659 9.74646 1.96444 9.54952 1.89176 9.32383C1.81907 9.09815 1.81957 8.85526 1.89317 8.62987C1.96678 8.40449 2.10972 8.20812 2.3016 8.06883C2.49347 7.92954 2.72446 7.85445 2.96156 7.85428H7.63656C7.83063 7.85428 8.0197 7.79268 8.17652 7.67835C8.33335 7.56403 8.44984 7.40288 8.50923 7.21812L9.93006 2.7897C10.003 2.56309 10.1459 2.36546 10.3383 2.22526C10.5307 2.08507 10.7627 2.00953 11.0007 2.00953C11.2388 2.00953 11.4707 2.08507 11.6631 2.22526C11.8555 2.36546 11.9985 2.56309 12.0714 2.7897L13.4922 7.21812C13.5516 7.40288 13.6681 7.56403 13.8249 7.67835C13.9818 7.79268 14.1708 7.85428 14.3649 7.85428H19.0399C19.277 7.85445 19.508 7.92954 19.6999 8.06883C19.8917 8.20812 20.0347 8.40449 20.1083 8.62987C20.1819 8.85526 20.1824 9.09815 20.1097 9.32383C20.037 9.54952 19.8949 9.74646 19.7036 9.88653H19.7017Z"
            fill="currentColor" />
    </g>
    <defs>
        <clipPath id="clip0_2_447">
            <rect width="22" height="22" fill="currentColor" />
        </clipPath>
    </defs>
</svg>